<svg width="100%" height="100%" viewBox="0 0 417 417" version="1.1" xmlns="http://www.w3.org/2000/svg" xmlns:xlink="http://www.w3.org/1999/xlink" xml:space="preserve" xmlns:serif="http://www.serif.com/" style="fill-rule:evenodd;clip-rule:evenodd;stroke-linejoin:round;stroke-miterlimit:2;">
    <path d="M314.628,297.396C332.174,273.76 342.561,244.497 342.561,212.827C342.561,143.329 292.564,85.41 226.6,73.137C216.426,71.244 209.703,61.447 211.596,51.274C213.489,41.1 223.286,34.377 233.459,36.27C316.841,51.784 380.061,124.978 380.061,212.827C380.061,253.008 366.839,290.126 344.51,320.06L391.536,320.06C403.034,320.06 412.369,329.395 412.369,340.893C412.369,352.391 403.034,361.727 391.536,361.727L293.794,361.727C282.288,361.727 272.961,352.399 272.961,340.893L272.961,243.151C272.961,231.653 282.296,222.318 293.794,222.318C305.293,222.318 314.628,231.653 314.628,243.151L314.628,297.396ZM67.746,91.893L23.592,91.893C12.093,91.893 2.758,82.558 2.758,71.059C2.758,59.561 12.093,50.226 23.592,50.226L121.333,50.226C132.839,50.226 142.167,59.554 142.167,71.059L142.167,168.801C142.167,180.299 132.832,189.635 121.333,189.635C109.835,189.635 100.5,180.299 100.5,168.801L100.5,111.903C74.501,137.66 58.384,173.375 58.384,212.827C58.384,282.095 108.051,339.86 173.69,352.393C183.855,354.334 190.531,364.163 188.59,374.327C186.649,384.492 176.821,391.169 166.656,389.228C83.685,373.385 20.884,300.385 20.884,212.827C20.884,166.265 38.638,123.815 67.746,91.893Z"/>
</svg>
