<?xml version="1.0" encoding="UTF-8" standalone="no"?>
<!DOCTYPE svg PUBLIC "-//W3C//DTD SVG 1.1//EN" "http://www.w3.org/Graphics/SVG/1.1/DTD/svg11.dtd">
<svg width="100%" height="100%" viewBox="0 0 200 100" version="1.1" xmlns="http://www.w3.org/2000/svg" xmlns:xlink="http://www.w3.org/1999/xlink" xml:space="preserve" xmlns:serif="http://www.serif.com/" style="fill-rule:evenodd;clip-rule:evenodd;stroke-linejoin:round;stroke-miterlimit:2;">
    <rect id="Artboard1" x="0" y="0" width="100" height="100" style="fill:none;"/>
    <g id="Artboard11" serif:id="Artboard1">
        <rect x="6.331" y="5.131" width="80.404" height="33.242" style="fill:url(#_Radial1);"/>
        <rect x="78.552" y="35.147" width="39.466" height="0.963" style="fill:rgb(78,255,0);"/>
        <g transform="matrix(0.707107,0.707107,-0.707107,0.707107,48.2002,-45.1096)">
            <rect x="78.552" y="35.147" width="39.466" height="0.963" style="fill:rgb(78,255,0);"/>
        </g>
        <g transform="matrix(0,1,-1,0,114.18,-42.9242)">
            <rect x="78.552" y="35.147" width="39.466" height="0.963" style="fill:rgb(78,255,0);"/>
        </g>
        <g transform="matrix(3.1137,0,0,3.1137,12.8615,-108.759)">
            <circle cx="33.766" cy="46.491" r="0.482" style="fill:rgb(0,255,239);"/>
        </g>
        <g transform="matrix(3.1137,0,0,3.1137,-26.5385,-109.059)">
            <circle cx="33.766" cy="46.491" r="0.482" style="fill:white;"/>
        </g>
        <g transform="matrix(3.1137,0,0,3.1137,-26.5385,-69.4588)">
            <circle cx="33.766" cy="46.491" r="0.482" style="fill:rgb(255,0,0);"/>
        </g>
    </g>
    <defs>
        <radialGradient id="_Radial1" cx="0" cy="0" r="1" gradientUnits="userSpaceOnUse" gradientTransform="matrix(39.5287,0.0798788,-0.0800133,39.5953,78.6389,35.6727)"><stop offset="0" style="stop-color:rgb(0,221,255);stop-opacity:1"/><stop offset="0.13" style="stop-color:rgb(31,193,255);stop-opacity:1"/><stop offset="0.16" style="stop-color:rgb(255,47,117);stop-opacity:1"/><stop offset="0.31" style="stop-color:rgb(255,62,143);stop-opacity:1"/><stop offset="0.35" style="stop-color:rgb(93,255,151);stop-opacity:1"/><stop offset="0.5" style="stop-color:rgb(111,255,170);stop-opacity:1"/><stop offset="0.53" style="stop-color:rgb(255,243,55);stop-opacity:1"/><stop offset="0.72" style="stop-color:rgb(255,225,28);stop-opacity:1"/><stop offset="0.75" style="stop-color:rgb(252,113,232);stop-opacity:1"/><stop offset="1" style="stop-color:rgb(249,0,255);stop-opacity:1"/></radialGradient>
    </defs>
</svg>
